<svg id="Layer_1" viewBox="0 0 24 24" xmlns="http://www.w3.org/2000/svg" data-name="Layer 1"><path d="m1.001 14.013v-1.424c1.309.912 3.314 1.379 5.995 1.387h.005s.003 0 .005 0c.783-.002 1.5-.049 2.166-.129-.123.48-.159.771-.171 1.261v1.771c-.63.075-1.277.12-2 .122-3.38-.01-5.917-.728-6-2.987zm.011 5.102c-.003-.035-.01-.067-.011-.102 0 0 .008.523.011.102zm7.988-.252c-.63.071-1.263.11-1.995.112-.002 0-.003 0-.005 0s-.003 0-.005 0c-2.681-.008-4.674-.475-5.984-1.387.002.873.002 1.316 0 1.527.158 2.176 2.662 2.875 5.989 2.885.876-.003 1.694-.054 2.429-.166-.262-.577-.408-1.176-.429-1.747.002-.386.006-.905 0-1.223zm8-.863c3.367-.01 5.917-.734 6-2.987-.079-2.217-2.62-2.977-6-2.987-3.368.011-5.924.817-6 2.987.083 2.259 2.62 2.977 6 2.987zm6 .599c-1.311.905-3.329 1.369-6.004 1.376-2.681-.008-4.674-.475-5.984-1.387 0 0 .009.838-.011 1.424.083 2.259 2.62 2.977 6 2.987 3.367-.01 5.917-.734 6-2.987v-1.414zm-16-11.623c3.367-.01 5.917-.734 6-2.987-.079-2.217-2.62-2.977-6-2.987-3.368.011-5.924.817-6 2.987.083 2.259 2.62 2.977 6 2.987zm-6 .588v1.424c.083 2.259 2.62 2.977 6 2.987 3.367-.01 5.917-.734 6-2.987v-1.414c-1.311.905-3.329 1.369-6.004 1.376-2.681-.008-4.686-.475-5.995-1.387zm14.5-3.563c1.071 0 1.5-.429 1.5-1.5s-.429-1.5-1.5-1.5-1.5.429-1.5 1.5.429 1.5 1.5 1.5zm4.5 4.5c0 1.071.429 1.5 1.5 1.5s1.5-.429 1.5-1.5-.429-1.5-1.5-1.5-1.5.429-1.5 1.5zm-4.332 1.248c.68.456 1.618.279 2.08-.416l4-6c.459-.689.273-1.621-.416-2.08-.69-.461-1.621-.273-2.08.416l-4 6c-.459.689-.273 1.621.416 2.08z"/></svg>