<svg id="Layer_1" viewBox="0 0 24 24" xmlns="http://www.w3.org/2000/svg" data-name="Layer 1"><path d="m23 5.058v-3.058h-2v2.051c-.165-.024-.329-.051-.5-.051s-.335.027-.5.051v-2.051h-2v3.058c-.617.631-1 1.492-1 2.442v1c0 5.429-3.849 11.5-9 11.5h-8v2h11c7.532 0 13-5.678 13-13.5v-1c0-.95-.383-1.81-1-2.442zm-7.555.314c-.283.668-.445 1.385-.445 2.127v1c0 1.571-.396 3.23-1.079 4.718-.379-2.384-2.432-4.218-4.921-4.218-2.206 0-4 1.794-4 4 0 1.654 1.346 3 3 3v-2c-.551 0-1-.449-1-1 0-1.103.897-2 2-2 1.654 0 3 1.346 3 3 0 2.206-1.794 4-4 4h-6.194c-1.137-1.569-1.806-3.577-1.806-6 0-4.961 4.038-8.999 9-8.999 2.458 0 4.705.895 6.445 2.373z"/></svg>