<?xml version="1.0" standalone="no"?>
<!DOCTYPE svg PUBLIC "-//W3C//DTD SVG 20010904//EN"
 "http://www.w3.org/TR/2001/REC-SVG-20010904/DTD/svg10.dtd">
<svg version="1.0" xmlns="http://www.w3.org/2000/svg"
 width="1280.000000pt" height="737.000000pt" viewBox="0 0 1280.000000 737.000000"
 preserveAspectRatio="xMidYMid meet">
<metadata>
Created by potrace 1.15, written by Peter Selinger 2001-2017
</metadata>
<g transform="translate(0.000000,737.000000) scale(0.100000,-0.100000)"
fill="#000000" stroke="none">
<path d="M9823 7350 c-65 -23 -101 -48 -147 -101 -33 -39 -66 -113 -66 -149 0
-10 -29 -30 -77 -54 -43 -21 -127 -71 -188 -111 -110 -73 -151 -107 -397 -331
-351 -320 -451 -397 -619 -477 -147 -70 -236 -122 -288 -171 -18 -17 -76 -85
-129 -151 -195 -245 -325 -372 -503 -491 -309 -207 -836 -357 -1659 -473 -80
-11 -581 -82 -1115 -157 l-970 -136 -117 11 c-231 22 -476 10 -653 -31 -49
-11 -218 -69 -375 -128 -774 -294 -1184 -400 -1493 -388 -105 4 -119 7 -190
41 -237 112 -339 256 -339 477 0 117 18 203 82 397 58 174 65 253 30 311 -41
68 -145 71 -250 7 -82 -49 -239 -205 -267 -265 -28 -59 -70 -297 -85 -477 -20
-240 13 -419 100 -552 155 -233 457 -411 815 -478 132 -25 470 -25 627 0 148
23 476 96 910 202 359 87 440 105 440 99 0 -8 -282 -388 -374 -504 -114 -143
-239 -271 -309 -317 -26 -17 -109 -56 -185 -86 -75 -30 -198 -82 -272 -115
-74 -33 -168 -71 -208 -86 -128 -46 -193 -105 -305 -276 -232 -357 -281 -604
-168 -847 65 -139 185 -279 276 -323 71 -34 154 -33 226 4 157 81 187 192 114
425 -19 62 -35 121 -35 130 0 30 197 145 420 246 164 74 550 205 550 186 0
-14 -56 -86 -89 -114 -87 -73 -227 -127 -398 -153 -174 -26 -212 -57 -233
-189 -17 -107 -85 -408 -142 -625 -28 -107 -53 -211 -55 -231 -3 -23 10 -93
36 -191 72 -274 144 -464 199 -521 41 -44 141 -113 212 -146 160 -76 256 -45
331 106 28 57 34 81 37 153 4 80 2 88 -29 145 -17 33 -52 98 -76 145 l-45 85
6 105 c7 117 24 206 40 219 6 5 166 57 356 116 676 209 1020 322 1138 376 85
38 182 107 666 468 599 448 782 574 941 651 172 82 348 103 1315 155 727 40
1048 99 1510 282 311 123 609 289 810 452 135 109 237 123 539 72 300 -50 295
-51 724 78 617 186 754 246 1147 497 135 86 265 169 290 184 105 63 192 81
455 100 127 9 158 14 202 36 91 44 194 174 254 319 44 110 22 290 -57 465 -43
93 -79 119 -249 179 -49 18 -101 39 -113 47 -16 10 -41 15 -73 12 l-49 -3 -29
82 c-52 149 -143 289 -214 324 -31 16 -78 25 -182 35 -77 7 -151 16 -165 19
-39 10 -82 -26 -211 -175 -105 -121 -121 -136 -168 -152 -69 -23 -115 -52
-128 -80 -6 -13 -27 -58 -47 -101 -43 -94 -66 -125 -114 -154 -59 -36 -57 -27
7 35 71 70 91 113 91 199 0 82 -23 120 -80 129 l-38 6 5 58 c3 32 3 66 -1 76
-6 16 -8 16 -26 -1 -11 -10 -27 -38 -36 -64 -10 -25 -20 -50 -24 -54 -13 -15
-231 63 -261 93 -37 36 -47 76 -25 98 26 26 173 22 254 -6 35 -13 84 -25 107
-29 42 -5 44 -7 47 -42 4 -47 25 -47 56 -1 21 32 31 37 105 53 144 32 235 86
258 154 6 20 9 62 7 97 -10 126 -85 221 -339 434 -52 44 -133 124 -180 178
-96 112 -207 199 -324 255 -96 46 -163 64 -272 74 -55 5 -83 11 -83 19 0 26
-90 193 -126 235 -45 51 -123 91 -179 91 -22 -1 -64 -9 -92 -20z m563 -1976
c66 -22 77 -34 98 -99 9 -31 30 -71 46 -89 l29 -33 -52 -12 c-29 -7 -101 -24
-161 -37 l-109 -25 -34 33 c-63 60 -63 58 34 173 48 58 90 105 94 105 3 0 28
-7 55 -16z m1315 -202 c-46 -65 -114 -132 -154 -151 -34 -17 -63 -21 -134 -21
-50 0 -112 -4 -139 -9 -27 -5 -89 -12 -139 -15 l-90 -6 330 114 c182 62 334
114 338 115 5 0 -1 -12 -12 -27z"/>
</g>
</svg>
