<?xml version="1.0" encoding="UTF-8"?>
<svg id="Camada_2" data-name="Camada 2" xmlns="http://www.w3.org/2000/svg" viewBox="0 0 1080.5 1080.5">
  <defs>
    <style>
      .cls-1 {
        fill: #6e6eba;
      }

      .cls-1, .cls-2, .cls-3 {
        stroke-width: 0px;
      }

      .cls-2 {
        fill: #6a5bd3;
      }

      .cls-3 {
        fill: #837ce0;
      }
    </style>
  </defs>
  <g id="Camada_1-2" data-name="Camada 1">
    <g>
      <rect class="cls-1" x="1028.82" y="1028.82" width="51.43" height="51.43"/>
      <rect class="cls-1" x="1028.82" y="977.39" width="51.43" height="51.43"/>
      <rect class="cls-3" x="1028.82" y="925.97" width="51.43" height="51.42"/>
      <rect class="cls-3" x="1028.82" y="874.54" width="51.43" height="51.43"/>
      <rect class="cls-2" x="1028.82" y="823.11" width="51.43" height="51.43"/>
      <rect class="cls-2" x="1028.82" y="771.68" width="51.43" height="51.43"/>
      <rect class="cls-1" x="1028.82" y="720.25" width="51.43" height="51.43"/>
      <rect class="cls-3" x="1028.82" y="668.82" width="51.43" height="51.43"/>
      <rect class="cls-3" x="1028.82" y="617.39" width="51.43" height="51.43"/>
      <rect class="cls-2" x="1028.82" y="565.97" width="51.43" height="51.42"/>
      <rect class="cls-1" x="1028.82" y="514.54" width="51.43" height="51.43"/>
      <rect class="cls-3" x="1028.82" y="463.11" width="51.43" height="51.43"/>
      <rect class="cls-3" x="1028.82" y="411.68" width="51.43" height="51.43"/>
      <rect class="cls-3" x="1028.82" y="360.25" width="51.43" height="51.43"/>
      <rect class="cls-2" x="1028.82" y="308.82" width="51.43" height="51.43"/>
      <rect class="cls-2" x="1028.82" y="257.39" width="51.43" height="51.43"/>
      <rect class="cls-1" x="1028.82" y="205.97" width="51.43" height="51.42"/>
      <rect class="cls-3" x="1028.82" y="154.54" width="51.43" height="51.43"/>
      <rect class="cls-3" x="1028.82" y="103.11" width="51.43" height="51.43"/>
      <rect class="cls-3" x="1028.82" y="51.68" width="51.43" height="51.43"/>
      <rect class="cls-2" x="1028.82" y=".25" width="51.43" height="51.43"/>
      <rect class="cls-1" x="977.39" y="1028.82" width="51.43" height="51.43"/>
      <rect class="cls-1" x="977.39" y="977.39" width="51.43" height="51.43"/>
      <rect class="cls-3" x="977.39" y="925.97" width="51.43" height="51.42"/>
      <rect class="cls-3" x="977.39" y="874.54" width="51.43" height="51.43"/>
      <rect class="cls-2" x="977.39" y="823.11" width="51.43" height="51.43"/>
      <rect class="cls-2" x="977.39" y="771.68" width="51.43" height="51.43"/>
      <rect class="cls-1" x="977.39" y="720.25" width="51.43" height="51.43"/>
      <rect class="cls-3" x="977.39" y="668.82" width="51.43" height="51.43"/>
      <rect class="cls-3" x="977.39" y="617.39" width="51.43" height="51.43"/>
      <rect class="cls-2" x="977.39" y="565.97" width="51.43" height="51.42"/>
      <rect class="cls-1" x="977.39" y="514.54" width="51.43" height="51.43"/>
      <rect class="cls-3" x="977.39" y="463.11" width="51.43" height="51.43"/>
      <rect class="cls-3" x="977.39" y="411.68" width="51.43" height="51.43"/>
      <rect class="cls-3" x="977.39" y="360.25" width="51.43" height="51.43"/>
      <rect class="cls-2" x="977.39" y="308.82" width="51.43" height="51.43"/>
      <rect class="cls-2" x="977.39" y="257.39" width="51.43" height="51.43"/>
      <rect class="cls-1" x="977.39" y="205.97" width="51.43" height="51.42"/>
      <rect class="cls-3" x="977.39" y="154.54" width="51.43" height="51.43"/>
      <rect class="cls-3" x="977.39" y="103.11" width="51.43" height="51.43"/>
      <rect class="cls-3" x="977.39" y="51.68" width="51.43" height="51.43"/>
      <rect class="cls-2" x="977.39" y=".25" width="51.43" height="51.43"/>
      <rect class="cls-1" x="925.96" y="1028.82" width="51.43" height="51.43"/>
      <rect class="cls-3" x="925.96" y="977.39" width="51.43" height="51.43"/>
      <rect class="cls-3" x="925.96" y="925.97" width="51.43" height="51.42"/>
      <rect class="cls-3" x="925.96" y="874.54" width="51.43" height="51.43"/>
      <rect class="cls-2" x="925.96" y="823.11" width="51.43" height="51.43"/>
      <rect class="cls-2" x="925.96" y="771.68" width="51.43" height="51.43"/>
      <rect class="cls-1" x="925.96" y="720.25" width="51.43" height="51.43"/>
      <rect class="cls-3" x="925.96" y="668.82" width="51.43" height="51.43"/>
      <rect class="cls-3" x="925.96" y="617.39" width="51.43" height="51.43"/>
      <rect class="cls-2" x="925.96" y="565.97" width="51.43" height="51.42"/>
      <rect class="cls-1" x="925.96" y="514.54" width="51.43" height="51.43"/>
      <rect class="cls-3" x="925.96" y="463.11" width="51.43" height="51.43"/>
      <rect class="cls-3" x="925.96" y="411.68" width="51.43" height="51.43"/>
      <rect class="cls-3" x="925.96" y="360.25" width="51.43" height="51.43"/>
      <rect class="cls-2" x="925.96" y="308.82" width="51.43" height="51.43"/>
      <rect class="cls-2" x="925.96" y="257.39" width="51.43" height="51.43"/>
      <rect class="cls-1" x="925.96" y="205.97" width="51.43" height="51.42"/>
      <rect class="cls-3" x="925.96" y="154.54" width="51.43" height="51.43"/>
      <rect class="cls-3" x="925.96" y="103.11" width="51.43" height="51.43"/>
      <rect class="cls-3" x="925.96" y="51.68" width="51.43" height="51.43"/>
      <rect class="cls-2" x="925.96" y=".25" width="51.43" height="51.43"/>
      <rect class="cls-1" x="874.53" y="1028.82" width="51.43" height="51.43"/>
      <rect class="cls-3" x="874.53" y="977.39" width="51.43" height="51.43"/>
      <rect class="cls-3" x="874.53" y="925.97" width="51.43" height="51.42"/>
      <rect class="cls-3" x="874.53" y="874.54" width="51.43" height="51.43"/>
      <rect class="cls-2" x="874.53" y="823.11" width="51.43" height="51.43"/>
      <rect class="cls-2" x="874.53" y="771.68" width="51.43" height="51.43"/>
      <rect class="cls-1" x="874.53" y="720.25" width="51.43" height="51.43"/>
      <rect class="cls-3" x="874.53" y="668.82" width="51.43" height="51.43"/>
      <rect class="cls-3" x="874.53" y="617.39" width="51.43" height="51.43"/>
      <rect class="cls-2" x="874.53" y="565.97" width="51.43" height="51.42"/>
      <rect class="cls-1" x="874.53" y="514.54" width="51.43" height="51.43"/>
      <rect class="cls-3" x="874.53" y="463.11" width="51.43" height="51.43"/>
      <rect class="cls-3" x="874.53" y="411.68" width="51.43" height="51.43"/>
      <rect class="cls-3" x="874.53" y="360.25" width="51.43" height="51.43"/>
      <rect class="cls-2" x="874.53" y="308.82" width="51.43" height="51.43"/>
      <rect class="cls-2" x="874.53" y="257.39" width="51.43" height="51.43"/>
      <rect class="cls-1" x="874.53" y="205.97" width="51.43" height="51.42"/>
      <rect class="cls-3" x="874.53" y="154.54" width="51.43" height="51.43"/>
      <rect class="cls-3" x="874.53" y="103.11" width="51.43" height="51.43"/>
      <rect class="cls-3" x="874.53" y="51.68" width="51.43" height="51.43"/>
      <rect class="cls-2" x="874.53" y=".25" width="51.43" height="51.43"/>
      <rect class="cls-1" x="823.11" y="1028.82" width="51.42" height="51.43"/>
      <rect class="cls-3" x="823.11" y="977.39" width="51.42" height="51.43"/>
      <rect class="cls-3" x="823.11" y="925.97" width="51.42" height="51.42"/>
      <rect class="cls-3" x="823.11" y="874.54" width="51.42" height="51.43"/>
      <rect class="cls-2" x="823.11" y="823.11" width="51.42" height="51.43"/>
      <rect class="cls-2" x="823.11" y="771.68" width="51.42" height="51.43"/>
      <rect class="cls-1" x="823.11" y="720.25" width="51.42" height="51.43"/>
      <rect class="cls-3" x="823.11" y="668.82" width="51.42" height="51.43"/>
      <rect class="cls-3" x="823.11" y="617.39" width="51.42" height="51.43"/>
      <rect class="cls-3" x="823.11" y="565.97" width="51.42" height="51.42"/>
      <rect class="cls-2" x="823.11" y="514.54" width="51.42" height="51.43"/>
      <rect class="cls-2" x="823.11" y="463.11" width="51.42" height="51.43"/>
      <rect class="cls-3" x="823.11" y="411.68" width="51.42" height="51.43"/>
      <rect class="cls-3" x="823.11" y="360.25" width="51.42" height="51.43"/>
      <rect class="cls-3" x="823.11" y="308.82" width="51.42" height="51.43"/>
      <rect class="cls-2" x="823.11" y="257.39" width="51.42" height="51.43"/>
      <rect class="cls-1" x="823.11" y="205.97" width="51.42" height="51.42"/>
      <rect class="cls-3" x="823.11" y="154.54" width="51.42" height="51.43"/>
      <rect class="cls-3" x="823.11" y="103.11" width="51.42" height="51.43"/>
      <rect class="cls-2" x="823.11" y="51.68" width="51.42" height="51.43"/>
      <rect class="cls-2" x="823.11" y=".25" width="51.42" height="51.43"/>
      <rect class="cls-1" x="771.68" y="1028.82" width="51.43" height="51.43"/>
      <rect class="cls-3" x="771.68" y="977.39" width="51.43" height="51.43"/>
      <rect class="cls-3" x="771.68" y="925.97" width="51.43" height="51.42"/>
      <rect class="cls-2" x="771.68" y="874.54" width="51.43" height="51.43"/>
      <rect class="cls-2" x="771.68" y="823.11" width="51.43" height="51.43"/>
      <rect class="cls-2" x="771.68" y="771.68" width="51.43" height="51.43"/>
      <rect class="cls-1" x="771.68" y="720.25" width="51.43" height="51.43"/>
      <rect class="cls-3" x="771.68" y="668.82" width="51.43" height="51.43"/>
      <rect class="cls-3" x="771.68" y="617.39" width="51.43" height="51.43"/>
      <rect class="cls-3" x="771.68" y="565.97" width="51.43" height="51.42"/>
      <rect class="cls-2" x="771.68" y="514.54" width="51.43" height="51.43"/>
      <rect class="cls-2" x="771.68" y="463.11" width="51.43" height="51.43"/>
      <rect class="cls-3" x="771.68" y="411.68" width="51.43" height="51.43"/>
      <rect class="cls-3" x="771.68" y="360.25" width="51.43" height="51.43"/>
      <rect class="cls-3" x="771.68" y="308.82" width="51.43" height="51.43"/>
      <rect class="cls-2" x="771.68" y="257.39" width="51.43" height="51.43"/>
      <rect class="cls-1" x="771.68" y="205.97" width="51.43" height="51.42"/>
      <rect class="cls-3" x="771.68" y="154.54" width="51.43" height="51.43"/>
      <rect class="cls-3" x="771.68" y="103.11" width="51.43" height="51.43"/>
      <rect class="cls-2" x="771.68" y="51.68" width="51.43" height="51.43"/>
      <rect class="cls-2" x="771.68" y=".25" width="51.43" height="51.43"/>
      <rect class="cls-2" x="720.25" y="1028.82" width="51.43" height="51.43"/>
      <rect class="cls-2" x="720.25" y="977.39" width="51.43" height="51.43"/>
      <rect class="cls-3" x="720.25" y="925.97" width="51.43" height="51.42"/>
      <rect class="cls-2" x="720.25" y="874.54" width="51.43" height="51.43"/>
      <rect class="cls-2" x="720.25" y="823.11" width="51.43" height="51.43"/>
      <rect class="cls-3" x="720.25" y="771.68" width="51.43" height="51.43"/>
      <rect class="cls-2" x="720.25" y="720.25" width="51.43" height="51.43"/>
      <rect class="cls-2" x="720.25" y="668.82" width="51.43" height="51.43"/>
      <rect class="cls-3" x="720.25" y="617.39" width="51.43" height="51.43"/>
      <rect class="cls-3" x="720.25" y="565.97" width="51.43" height="51.42"/>
      <rect class="cls-2" x="720.25" y="514.54" width="51.43" height="51.43"/>
      <rect class="cls-2" x="720.25" y="463.11" width="51.43" height="51.43"/>
      <rect class="cls-3" x="720.25" y="411.68" width="51.43" height="51.43"/>
      <rect class="cls-3" x="720.25" y="360.25" width="51.43" height="51.43"/>
      <rect class="cls-3" x="720.25" y="308.82" width="51.43" height="51.43"/>
      <rect class="cls-2" x="720.25" y="257.39" width="51.43" height="51.43"/>
      <rect class="cls-2" x="720.25" y="205.97" width="51.43" height="51.42"/>
      <rect class="cls-3" x="720.25" y="154.54" width="51.43" height="51.43"/>
      <rect class="cls-3" x="720.25" y="103.11" width="51.43" height="51.43"/>
      <rect class="cls-2" x="720.25" y="51.68" width="51.43" height="51.43"/>
      <rect class="cls-2" x="720.25" y=".25" width="51.43" height="51.43"/>
      <rect class="cls-2" x="668.82" y="1028.82" width="51.43" height="51.43"/>
      <rect class="cls-2" x="668.82" y="977.39" width="51.43" height="51.43"/>
      <rect class="cls-2" x="668.82" y="925.97" width="51.43" height="51.42"/>
      <rect class="cls-2" x="668.82" y="874.54" width="51.43" height="51.43"/>
      <rect class="cls-2" x="668.82" y="823.11" width="51.43" height="51.43"/>
      <rect class="cls-3" x="668.82" y="771.68" width="51.43" height="51.43"/>
      <rect class="cls-2" x="668.82" y="720.25" width="51.43" height="51.43"/>
      <rect class="cls-2" x="668.82" y="668.82" width="51.43" height="51.43"/>
      <rect class="cls-2" x="668.82" y="617.39" width="51.43" height="51.43"/>
      <rect class="cls-2" x="668.82" y="565.97" width="51.43" height="51.42"/>
      <rect class="cls-2" x="668.82" y="514.54" width="51.43" height="51.43"/>
      <rect class="cls-2" x="668.82" y="463.11" width="51.43" height="51.43"/>
      <rect class="cls-1" x="668.82" y="411.68" width="51.43" height="51.43"/>
      <rect class="cls-3" x="668.82" y="360.25" width="51.43" height="51.43"/>
      <rect class="cls-3" x="668.82" y="308.82" width="51.43" height="51.43"/>
      <rect class="cls-2" x="668.82" y="257.39" width="51.43" height="51.43"/>
      <rect class="cls-2" x="668.82" y="205.97" width="51.43" height="51.42"/>
      <rect class="cls-2" x="668.82" y="154.54" width="51.43" height="51.43"/>
      <rect class="cls-2" x="668.82" y="103.11" width="51.43" height="51.43"/>
      <rect class="cls-2" x="668.82" y="51.68" width="51.43" height="51.43"/>
      <rect class="cls-1" x="668.82" y=".25" width="51.43" height="51.43"/>
      <rect class="cls-3" x="617.39" y="1028.82" width="51.43" height="51.43"/>
      <rect class="cls-2" x="617.39" y="977.39" width="51.43" height="51.43"/>
      <rect class="cls-2" x="617.39" y="925.97" width="51.43" height="51.42"/>
      <rect class="cls-2" x="617.39" y="874.54" width="51.43" height="51.43"/>
      <rect class="cls-3" x="617.39" y="823.11" width="51.43" height="51.43"/>
      <rect class="cls-3" x="617.39" y="771.68" width="51.43" height="51.43"/>
      <rect class="cls-2" x="617.39" y="720.25" width="51.43" height="51.43"/>
      <rect class="cls-2" x="617.39" y="668.82" width="51.43" height="51.43"/>
      <rect class="cls-2" x="617.39" y="617.39" width="51.43" height="51.43"/>
      <rect class="cls-2" x="617.39" y="565.97" width="51.43" height="51.42"/>
      <rect class="cls-2" x="617.39" y="514.54" width="51.43" height="51.43"/>
      <rect class="cls-2" x="617.39" y="463.11" width="51.43" height="51.43"/>
      <rect class="cls-1" x="617.39" y="411.68" width="51.43" height="51.43"/>
      <rect class="cls-3" x="617.39" y="360.25" width="51.43" height="51.43"/>
      <rect class="cls-3" x="617.39" y="308.82" width="51.43" height="51.43"/>
      <rect class="cls-2" x="617.39" y="257.39" width="51.43" height="51.43"/>
      <rect class="cls-2" x="617.39" y="205.97" width="51.43" height="51.42"/>
      <rect class="cls-2" x="617.39" y="154.54" width="51.43" height="51.43"/>
      <rect class="cls-2" x="617.39" y="103.11" width="51.43" height="51.43"/>
      <rect class="cls-2" x="617.39" y="51.68" width="51.43" height="51.43"/>
      <rect class="cls-1" x="617.39" y=".25" width="51.43" height="51.43"/>
      <rect class="cls-3" x="565.96" y="1028.82" width="51.43" height="51.43"/>
      <rect class="cls-2" x="565.96" y="977.39" width="51.43" height="51.43"/>
      <rect class="cls-2" x="565.96" y="925.97" width="51.43" height="51.42"/>
      <rect class="cls-2" x="565.96" y="874.54" width="51.43" height="51.43"/>
      <rect class="cls-3" x="565.96" y="823.11" width="51.43" height="51.43"/>
      <rect class="cls-3" x="565.96" y="771.68" width="51.43" height="51.43"/>
      <rect class="cls-2" x="565.96" y="720.25" width="51.43" height="51.43"/>
      <rect class="cls-2" x="565.96" y="668.82" width="51.43" height="51.43"/>
      <rect class="cls-2" x="565.96" y="617.39" width="51.43" height="51.43"/>
      <rect class="cls-2" x="565.96" y="565.97" width="51.43" height="51.42"/>
      <rect class="cls-2" x="565.96" y="514.54" width="51.43" height="51.43"/>
      <rect class="cls-2" x="565.96" y="463.11" width="51.43" height="51.43"/>
      <rect class="cls-1" x="565.96" y="411.68" width="51.43" height="51.43"/>
      <rect class="cls-3" x="565.96" y="360.25" width="51.43" height="51.43"/>
      <rect class="cls-3" x="565.96" y="308.82" width="51.43" height="51.43"/>
      <rect class="cls-2" x="565.96" y="257.39" width="51.43" height="51.43"/>
      <rect class="cls-2" x="565.96" y="205.97" width="51.43" height="51.42"/>
      <rect class="cls-2" x="565.96" y="154.54" width="51.43" height="51.43"/>
      <rect class="cls-2" x="565.96" y="103.11" width="51.43" height="51.43"/>
      <rect class="cls-1" x="565.96" y="51.68" width="51.43" height="51.43"/>
      <rect class="cls-1" x="565.96" y=".25" width="51.43" height="51.43"/>
      <rect class="cls-3" x="514.53" y="1028.82" width="51.43" height="51.43"/>
      <rect class="cls-2" x="514.53" y="977.39" width="51.43" height="51.43"/>
      <rect class="cls-2" x="514.53" y="925.97" width="51.43" height="51.42"/>
      <rect class="cls-2" x="514.53" y="874.54" width="51.43" height="51.43"/>
      <rect class="cls-3" x="514.53" y="823.11" width="51.43" height="51.43"/>
      <rect class="cls-3" x="514.53" y="771.68" width="51.43" height="51.43"/>
      <rect class="cls-2" x="514.53" y="720.25" width="51.43" height="51.43"/>
      <rect class="cls-2" x="514.53" y="668.82" width="51.43" height="51.43"/>
      <rect class="cls-1" x="514.53" y="617.39" width="51.43" height="51.43"/>
      <rect class="cls-1" x="514.53" y="565.97" width="51.43" height="51.42"/>
      <rect class="cls-3" x="514.53" y="514.54" width="51.43" height="51.43"/>
      <rect class="cls-2" x="514.53" y="463.11" width="51.43" height="51.43"/>
      <rect class="cls-2" x="514.53" y="411.68" width="51.43" height="51.43"/>
      <rect class="cls-2" x="514.53" y="360.25" width="51.43" height="51.43"/>
      <rect class="cls-2" x="514.53" y="308.82" width="51.43" height="51.43"/>
      <rect class="cls-2" x="514.53" y="257.39" width="51.43" height="51.43"/>
      <rect class="cls-2" x="514.53" y="205.97" width="51.43" height="51.42"/>
      <rect class="cls-2" x="514.53" y="154.54" width="51.43" height="51.43"/>
      <rect class="cls-1" x="514.53" y="103.11" width="51.43" height="51.43"/>
      <rect class="cls-1" x="514.53" y="51.68" width="51.43" height="51.43"/>
      <rect class="cls-3" x="514.53" y=".25" width="51.43" height="51.43"/>
      <rect class="cls-2" x="463.11" y="1028.82" width="51.42" height="51.43"/>
      <rect class="cls-2" x="463.11" y="977.39" width="51.42" height="51.43"/>
      <rect class="cls-2" x="463.11" y="925.97" width="51.42" height="51.42"/>
      <rect class="cls-2" x="463.11" y="874.54" width="51.42" height="51.43"/>
      <rect class="cls-1" x="463.11" y="823.11" width="51.42" height="51.43"/>
      <rect class="cls-3" x="463.11" y="771.68" width="51.42" height="51.43"/>
      <rect class="cls-3" x="463.11" y="720.25" width="51.42" height="51.43"/>
      <rect class="cls-2" x="463.11" y="668.82" width="51.42" height="51.43"/>
      <rect class="cls-1" x="463.11" y="617.39" width="51.42" height="51.43"/>
      <rect class="cls-3" x="463.11" y="565.97" width="51.42" height="51.42"/>
      <rect class="cls-3" x="463.11" y="514.54" width="51.42" height="51.43"/>
      <rect class="cls-2" x="463.11" y="463.11" width="51.42" height="51.43"/>
      <rect class="cls-2" x="463.11" y="411.68" width="51.42" height="51.43"/>
      <rect class="cls-2" x="463.11" y="360.25" width="51.42" height="51.43"/>
      <rect class="cls-2" x="463.11" y="308.82" width="51.42" height="51.43"/>
      <rect class="cls-2" x="463.11" y="257.39" width="51.42" height="51.43"/>
      <rect class="cls-2" x="463.11" y="205.97" width="51.42" height="51.42"/>
      <rect class="cls-2" x="463.11" y="154.54" width="51.42" height="51.43"/>
      <rect class="cls-1" x="463.11" y="103.11" width="51.42" height="51.43"/>
      <rect class="cls-3" x="463.11" y="51.68" width="51.42" height="51.43"/>
      <rect class="cls-3" x="463.11" y=".25" width="51.42" height="51.43"/>
      <rect class="cls-2" x="411.68" y="1028.82" width="51.43" height="51.43"/>
      <rect class="cls-2" x="411.68" y="977.39" width="51.43" height="51.43"/>
      <rect class="cls-2" x="411.68" y="925.97" width="51.43" height="51.42"/>
      <rect class="cls-2" x="411.68" y="874.54" width="51.43" height="51.43"/>
      <rect class="cls-1" x="411.68" y="823.11" width="51.43" height="51.43"/>
      <rect class="cls-3" x="411.68" y="771.68" width="51.43" height="51.43"/>
      <rect class="cls-3" x="411.68" y="720.25" width="51.43" height="51.43"/>
      <rect class="cls-2" x="411.68" y="668.82" width="51.43" height="51.43"/>
      <rect class="cls-1" x="411.68" y="617.39" width="51.43" height="51.43"/>
      <rect class="cls-3" x="411.68" y="565.97" width="51.43" height="51.42"/>
      <rect class="cls-3" x="411.68" y="514.54" width="51.43" height="51.43"/>
      <rect class="cls-2" x="411.68" y="463.11" width="51.43" height="51.43"/>
      <rect class="cls-2" x="411.68" y="411.68" width="51.43" height="51.43"/>
      <rect class="cls-2" x="411.68" y="360.25" width="51.43" height="51.43"/>
      <rect class="cls-2" x="411.68" y="308.82" width="51.43" height="51.43"/>
      <rect class="cls-2" x="411.68" y="257.39" width="51.43" height="51.43"/>
      <rect class="cls-2" x="411.68" y="205.97" width="51.43" height="51.42"/>
      <rect class="cls-2" x="411.68" y="154.54" width="51.43" height="51.43"/>
      <rect class="cls-1" x="411.68" y="103.11" width="51.43" height="51.43"/>
      <rect class="cls-3" x="411.68" y="51.68" width="51.43" height="51.43"/>
      <rect class="cls-3" x="411.68" y=".25" width="51.43" height="51.43"/>
      <rect class="cls-2" x="360.25" y="1028.82" width="51.43" height="51.43"/>
      <rect class="cls-2" x="360.25" y="977.39" width="51.43" height="51.43"/>
      <rect class="cls-3" x="360.25" y="925.97" width="51.43" height="51.42"/>
      <rect class="cls-2" x="360.25" y="874.54" width="51.43" height="51.43"/>
      <rect class="cls-1" x="360.25" y="823.11" width="51.43" height="51.43"/>
      <rect class="cls-3" x="360.25" y="771.68" width="51.43" height="51.43"/>
      <rect class="cls-3" x="360.25" y="720.25" width="51.43" height="51.43"/>
      <rect class="cls-2" x="360.25" y="668.82" width="51.43" height="51.43"/>
      <rect class="cls-3" x="360.25" y="617.39" width="51.43" height="51.43"/>
      <rect class="cls-3" x="360.25" y="565.97" width="51.43" height="51.42"/>
      <rect class="cls-3" x="360.25" y="514.54" width="51.43" height="51.43"/>
      <rect class="cls-2" x="360.25" y="463.11" width="51.43" height="51.43"/>
      <rect class="cls-1" x="360.25" y="411.68" width="51.43" height="51.43"/>
      <rect class="cls-2" x="360.25" y="360.25" width="51.43" height="51.43"/>
      <rect class="cls-2" x="360.25" y="308.82" width="51.43" height="51.43"/>
      <rect class="cls-2" x="360.25" y="257.39" width="51.43" height="51.43"/>
      <rect class="cls-2" x="360.25" y="205.97" width="51.43" height="51.42"/>
      <rect class="cls-2" x="360.25" y="154.54" width="51.43" height="51.43"/>
      <rect class="cls-1" x="360.25" y="103.11" width="51.43" height="51.43"/>
      <rect class="cls-3" x="360.25" y="51.68" width="51.43" height="51.43"/>
      <rect class="cls-3" x="360.25" y=".25" width="51.43" height="51.43"/>
      <rect class="cls-2" x="308.82" y="1028.82" width="51.43" height="51.43"/>
      <rect class="cls-2" x="308.82" y="977.39" width="51.43" height="51.43"/>
      <rect class="cls-3" x="308.82" y="925.97" width="51.43" height="51.42"/>
      <rect class="cls-2" x="308.82" y="874.54" width="51.43" height="51.43"/>
      <rect class="cls-1" x="308.82" y="823.11" width="51.43" height="51.43"/>
      <rect class="cls-3" x="308.82" y="771.68" width="51.43" height="51.43"/>
      <rect class="cls-3" x="308.82" y="720.25" width="51.43" height="51.43"/>
      <rect class="cls-2" x="308.82" y="668.82" width="51.43" height="51.43"/>
      <rect class="cls-3" x="308.82" y="617.39" width="51.43" height="51.43"/>
      <rect class="cls-3" x="308.82" y="565.97" width="51.43" height="51.42"/>
      <rect class="cls-3" x="308.82" y="514.54" width="51.43" height="51.43"/>
      <rect class="cls-2" x="308.82" y="463.11" width="51.43" height="51.43"/>
      <rect class="cls-1" x="308.82" y="411.68" width="51.43" height="51.43"/>
      <rect class="cls-3" x="308.82" y="360.25" width="51.43" height="51.43"/>
      <rect class="cls-2" x="308.82" y="308.82" width="51.43" height="51.43"/>
      <rect class="cls-2" x="308.82" y="257.39" width="51.43" height="51.43"/>
      <rect class="cls-2" x="308.82" y="205.97" width="51.43" height="51.42"/>
      <rect class="cls-2" x="308.82" y="154.54" width="51.43" height="51.43"/>
      <rect class="cls-3" x="308.82" y="103.11" width="51.43" height="51.43"/>
      <rect class="cls-3" x="308.82" y="51.68" width="51.43" height="51.43"/>
      <rect class="cls-3" x="308.82" y=".25" width="51.43" height="51.43"/>
      <rect class="cls-2" x="257.39" y="1028.82" width="51.43" height="51.43"/>
      <rect class="cls-3" x="257.39" y="977.39" width="51.43" height="51.43"/>
      <rect class="cls-3" x="257.39" y="925.97" width="51.43" height="51.42"/>
      <rect class="cls-2" x="257.39" y="874.54" width="51.43" height="51.43"/>
      <rect class="cls-1" x="257.39" y="823.11" width="51.43" height="51.43"/>
      <rect class="cls-3" x="257.39" y="771.68" width="51.43" height="51.43"/>
      <rect class="cls-3" x="257.39" y="720.25" width="51.43" height="51.43"/>
      <rect class="cls-2" x="257.39" y="668.82" width="51.43" height="51.43"/>
      <rect class="cls-3" x="257.39" y="617.39" width="51.43" height="51.43"/>
      <rect class="cls-3" x="257.39" y="565.97" width="51.43" height="51.42"/>
      <rect class="cls-3" x="257.39" y="514.54" width="51.43" height="51.43"/>
      <rect class="cls-2" x="257.39" y="463.11" width="51.43" height="51.43"/>
      <rect class="cls-1" x="257.39" y="411.68" width="51.43" height="51.43"/>
      <rect class="cls-3" x="257.39" y="360.25" width="51.43" height="51.43"/>
      <rect class="cls-2" x="257.39" y="308.82" width="51.43" height="51.43"/>
      <rect class="cls-2" x="257.39" y="257.39" width="51.43" height="51.43"/>
      <rect class="cls-2" x="257.39" y="205.97" width="51.43" height="51.42"/>
      <rect class="cls-2" x="257.39" y="154.54" width="51.43" height="51.43"/>
      <rect class="cls-3" x="257.39" y="103.11" width="51.43" height="51.43"/>
      <rect class="cls-3" x="257.39" y="51.68" width="51.43" height="51.43"/>
      <rect class="cls-3" x="257.39" y=".25" width="51.43" height="51.43"/>
      <rect class="cls-2" x="205.96" y="1028.82" width="51.43" height="51.43"/>
      <rect class="cls-3" x="205.96" y="977.39" width="51.43" height="51.43"/>
      <rect class="cls-3" x="205.96" y="925.97" width="51.43" height="51.42"/>
      <rect class="cls-2" x="205.96" y="874.54" width="51.43" height="51.43"/>
      <rect class="cls-1" x="205.96" y="823.11" width="51.43" height="51.43"/>
      <rect class="cls-3" x="205.96" y="771.68" width="51.43" height="51.43"/>
      <rect class="cls-2" x="205.96" y="720.25" width="51.43" height="51.43"/>
      <rect class="cls-2" x="205.96" y="668.82" width="51.43" height="51.43"/>
      <rect class="cls-3" x="205.96" y="617.39" width="51.43" height="51.43"/>
      <rect class="cls-3" x="205.96" y="565.97" width="51.43" height="51.42"/>
      <rect class="cls-3" x="205.96" y="514.54" width="51.43" height="51.43"/>
      <rect class="cls-2" x="205.96" y="463.11" width="51.43" height="51.43"/>
      <rect class="cls-1" x="205.96" y="411.68" width="51.43" height="51.43"/>
      <rect class="cls-3" x="205.96" y="360.25" width="51.43" height="51.43"/>
      <rect class="cls-2" x="205.96" y="308.82" width="51.43" height="51.43"/>
      <rect class="cls-2" x="205.96" y="257.39" width="51.43" height="51.43"/>
      <rect class="cls-2" x="205.96" y="205.97" width="51.43" height="51.42"/>
      <rect class="cls-3" x="205.96" y="154.54" width="51.43" height="51.43"/>
      <rect class="cls-3" x="205.96" y="103.11" width="51.43" height="51.43"/>
      <rect class="cls-3" x="205.96" y="51.68" width="51.43" height="51.43"/>
      <rect class="cls-3" x="205.96" y=".25" width="51.43" height="51.43"/>
      <rect class="cls-2" x="154.53" y="1028.82" width="51.43" height="51.43"/>
      <rect class="cls-3" x="154.53" y="977.39" width="51.43" height="51.43"/>
      <rect class="cls-3" x="154.53" y="925.97" width="51.43" height="51.42"/>
      <rect class="cls-2" x="154.53" y="874.54" width="51.43" height="51.43"/>
      <rect class="cls-1" x="154.53" y="823.11" width="51.43" height="51.43"/>
      <rect class="cls-3" x="154.53" y="771.68" width="51.43" height="51.43"/>
      <rect class="cls-2" x="154.53" y="720.25" width="51.43" height="51.43"/>
      <rect class="cls-2" x="154.53" y="668.82" width="51.43" height="51.43"/>
      <rect class="cls-3" x="154.53" y="617.39" width="51.43" height="51.43"/>
      <rect class="cls-3" x="154.53" y="565.97" width="51.43" height="51.42"/>
      <rect class="cls-3" x="154.53" y="514.54" width="51.43" height="51.43"/>
      <rect class="cls-2" x="154.53" y="463.11" width="51.43" height="51.43"/>
      <rect class="cls-1" x="154.53" y="411.68" width="51.43" height="51.43"/>
      <rect class="cls-3" x="154.53" y="360.25" width="51.43" height="51.43"/>
      <rect class="cls-3" x="154.53" y="308.82" width="51.43" height="51.43"/>
      <rect class="cls-2" x="154.53" y="257.39" width="51.43" height="51.43"/>
      <rect class="cls-1" x="154.53" y="205.97" width="51.43" height="51.42"/>
      <rect class="cls-3" x="154.53" y="154.54" width="51.43" height="51.43"/>
      <rect class="cls-3" x="154.53" y="103.11" width="51.43" height="51.43"/>
      <rect class="cls-3" x="154.53" y="51.68" width="51.43" height="51.43"/>
      <rect class="cls-3" x="154.53" y=".25" width="51.43" height="51.43"/>
      <rect class="cls-2" x="103.11" y="1028.82" width="51.42" height="51.43"/>
      <rect class="cls-3" x="103.11" y="977.39" width="51.42" height="51.43"/>
      <rect class="cls-1" x="103.11" y="925.97" width="51.42" height="51.42"/>
      <rect class="cls-2" x="103.11" y="874.54" width="51.42" height="51.43"/>
      <rect class="cls-1" x="103.11" y="823.11" width="51.42" height="51.43"/>
      <rect class="cls-3" x="103.11" y="771.68" width="51.42" height="51.43"/>
      <rect class="cls-2" x="103.11" y="720.25" width="51.42" height="51.43"/>
      <rect class="cls-2" x="103.11" y="668.82" width="51.42" height="51.43"/>
      <rect class="cls-3" x="103.11" y="617.39" width="51.42" height="51.43"/>
      <rect class="cls-3" x="103.11" y="565.97" width="51.42" height="51.42"/>
      <rect class="cls-3" x="103.11" y="514.54" width="51.42" height="51.43"/>
      <rect class="cls-2" x="103.11" y="463.11" width="51.42" height="51.43"/>
      <rect class="cls-1" x="103.11" y="411.68" width="51.42" height="51.43"/>
      <rect class="cls-3" x="103.11" y="360.25" width="51.42" height="51.43"/>
      <rect class="cls-3" x="103.11" y="308.82" width="51.42" height="51.43"/>
      <rect class="cls-2" x="103.11" y="257.39" width="51.42" height="51.43"/>
      <rect class="cls-1" x="103.11" y="205.97" width="51.42" height="51.42"/>
      <rect class="cls-3" x="103.11" y="154.54" width="51.42" height="51.43"/>
      <rect class="cls-3" x="103.11" y="103.11" width="51.42" height="51.43"/>
      <rect class="cls-3" x="103.11" y="51.68" width="51.42" height="51.43"/>
      <rect class="cls-3" x="103.11" y=".25" width="51.42" height="51.43"/>
      <rect class="cls-2" x="51.68" y="1028.82" width="51.43" height="51.43"/>
      <rect class="cls-3" x="51.68" y="977.39" width="51.43" height="51.43"/>
      <rect class="cls-1" x="51.68" y="925.97" width="51.43" height="51.42"/>
      <rect class="cls-2" x="51.68" y="874.54" width="51.43" height="51.43"/>
      <rect class="cls-2" x="51.68" y="823.11" width="51.43" height="51.43"/>
      <rect class="cls-2" x="51.68" y="771.68" width="51.43" height="51.43"/>
      <rect class="cls-2" x="51.68" y="720.25" width="51.43" height="51.43"/>
      <rect class="cls-2" x="51.68" y="668.82" width="51.43" height="51.43"/>
      <rect class="cls-1" x="51.68" y="617.39" width="51.43" height="51.43"/>
      <rect class="cls-3" x="51.68" y="565.97" width="51.43" height="51.42"/>
      <rect class="cls-3" x="51.68" y="514.54" width="51.43" height="51.43"/>
      <rect class="cls-2" x="51.68" y="463.11" width="51.43" height="51.43"/>
      <rect class="cls-1" x="51.68" y="411.68" width="51.43" height="51.43"/>
      <rect class="cls-3" x="51.68" y="360.25" width="51.43" height="51.43"/>
      <rect class="cls-3" x="51.68" y="308.82" width="51.43" height="51.43"/>
      <rect class="cls-2" x="51.68" y="257.39" width="51.43" height="51.43"/>
      <rect class="cls-1" x="51.68" y="205.97" width="51.43" height="51.42"/>
      <rect class="cls-3" x="51.68" y="154.54" width="51.43" height="51.43"/>
      <rect class="cls-3" x="51.68" y="103.11" width="51.43" height="51.43"/>
      <rect class="cls-3" x="51.68" y="51.68" width="51.43" height="51.43"/>
      <rect class="cls-3" x="51.68" y=".25" width="51.43" height="51.43"/>
      <rect class="cls-2" x=".25" y="1028.82" width="51.43" height="51.43"/>
      <rect class="cls-3" x=".25" y="977.39" width="51.43" height="51.43"/>
      <rect class="cls-1" x=".25" y="925.97" width="51.43" height="51.42"/>
      <rect class="cls-2" x=".25" y="874.54" width="51.43" height="51.43"/>
      <rect class="cls-2" x=".25" y="823.11" width="51.43" height="51.43"/>
      <rect class="cls-2" x=".25" y="771.68" width="51.43" height="51.43"/>
      <rect class="cls-2" x=".25" y="720.25" width="51.43" height="51.43"/>
      <rect class="cls-2" x=".25" y="668.82" width="51.43" height="51.43"/>
      <rect class="cls-1" x=".25" y="617.39" width="51.43" height="51.43"/>
      <rect class="cls-3" x=".25" y="565.97" width="51.43" height="51.42"/>
      <rect class="cls-3" x=".25" y="514.54" width="51.43" height="51.43"/>
      <rect class="cls-2" x=".25" y="463.11" width="51.43" height="51.43"/>
      <rect class="cls-1" x=".25" y="411.68" width="51.43" height="51.43"/>
      <rect class="cls-3" x=".25" y="360.25" width="51.43" height="51.43"/>
      <rect class="cls-3" x=".25" y="308.82" width="51.43" height="51.43"/>
      <rect class="cls-2" x=".25" y="257.39" width="51.43" height="51.43"/>
      <rect class="cls-1" x=".25" y="205.97" width="51.43" height="51.42"/>
      <rect class="cls-3" x=".25" y="154.54" width="51.43" height="51.43"/>
      <rect class="cls-3" x=".25" y="103.11" width="51.43" height="51.43"/>
      <rect class="cls-3" x=".25" y="51.68" width="51.43" height="51.43"/>
      <rect class="cls-3" x=".25" y=".25" width="51.43" height="51.43"/>
    </g>
  </g>
</svg>